PathFileType	4	(X/Y/Z)	D:\TRACE\v60_Jaco2_6-2-23\BothDRS_Motion1_7-v60.trc
DataRate	CameraRate	NumFrames	NumMarkers	Units	OrigDataRate	OrigDataStartFrame	OrigNumFrames
100.00	100.00	      14	9	mm	100.00	5626	      7500
Frame#	Time	front left toe			Front right toe			aft left toe			aft right toe			Arm			FL body			FR body			AL Body			AR Body			
		X1	Y1	Z1	X2	Y2	Z2	X3	Y3	Z3	X4	Y4	Z4	X5	Y5	Z5	X6	Y6	Z6	X7	Y7	Z7	X8	Y8	Z8	X9	Y9	Z9	

5626	56.250	-96.28980	13.59447	-249.44450	313.79947	9.98061	-284.92456	-33.91481	20.93657	347.55771	288.20038	22.31791	369.80624	172.83470	1095.58362	-641.39313	21.80870	559.70612	-406.62292	182.28676	552.87604	-417.17416	85.21333	581.84192	537.26050	242.66161	569.97302	531.34698	
5627	56.260	-93.81871	16.48094	-250.08382	313.18396	10.12743	-284.60916	-31.78986	20.07329	347.99152	288.11954	24.90487	369.91562	170.69476	1096.18311	-644.39923	21.69604	559.91565	-407.16776	181.34601	553.50323	-418.90915	87.41618	583.13898	535.98395	244.73592	572.28790	530.19653	
5628	56.270	-88.71995	19.51966	-246.93263	312.58374	10.43237	-285.03098	-31.66382	19.82700	347.94843	288.10352	31.40723	372.05823	168.95801	1096.07593	-647.38373	21.31718	560.97186	-407.62109	180.46352	554.41522	-419.27975	89.30195	584.04913	535.77832	243.55673	571.84564	525.96088	
5629	56.280	-83.49382	28.60150	-247.37640	312.11502	10.39165	-285.40073	-32.63271	20.80820	347.95111	289.12085	39.08717	371.20831	168.08078	1095.44812	-648.94452	21.01202	561.91382	-408.28479	179.61754	555.24664	-420.36600	90.83241	584.63165	533.86639	245.46817	572.48297	525.18219	
5630	56.290	-81.50127	37.37292	-248.55978	311.74203	10.31131	-285.34088	-33.06989	19.74550	347.71710	290.71396	49.47316	369.45334	167.40106	1095.27722	-649.81293	19.56211	562.94641	-410.14481	179.80267	556.15295	-422.23599	92.28291	585.05719	532.92957	246.96494	571.74469	521.08539	
5631	56.300	-82.09639	48.26989	-249.95178	311.49210	10.36529	-285.32739	-33.13857	19.69081	347.96448	292.67688	59.83850	365.98737	167.37781	1096.43359	-650.62836	20.55476	562.18848	-410.39301	179.18687	556.00024	-423.00684	93.30938	585.24738	531.85370	248.14601	572.90265	520.30304	
5632	56.310	-83.79774	59.36537	-252.84669	311.24698	10.38531	-285.30151	-33.72185	19.49461	347.96881	296.66544	72.19534	361.65088	167.08653	1097.85193	-651.53015	19.53592	562.13898	-411.50247	179.07794	556.09229	-424.15930	93.68217	585.21411	530.91064	247.83174	573.24872	519.23901	
5633	56.320	-84.94405	71.24043	-255.12450	310.41235	10.23408	-285.27676	-34.03671	19.30867	347.95950	302.16574	83.50467	357.89087	166.49683	1098.93994	-652.23651	19.79159	561.92517	-412.59546	179.31544	556.25476	-425.43732	94.43806	584.84326	530.02747	249.13350	572.80841	518.28607	
5634	56.330	-84.78841	83.23882	-257.35675	310.13174	10.36090	-285.23477	-34.64436	19.02670	347.90082	307.30704	94.82441	353.47049	165.86786	1099.61841	-652.66083	19.81303	561.94781	-413.43600	179.55493	556.55316	-426.27582	94.90682	584.14313	529.53247	249.56940	572.30121	517.26868	
5635	56.340	-83.87822	94.28076	-259.49829	309.83383	10.40769	-285.22702	-35.31687	18.89418	347.93292	311.55200	105.08873	349.36063	165.19682	1099.98462	-653.92267	19.39487	562.38477	-414.22879	178.36890	556.66779	-426.91357	95.04029	583.36646	528.76733	249.23911	571.84949	516.39038	
5636	56.350	-83.61408	105.17461	-261.56140	309.49774	10.51564	-285.24234	-36.06817	18.59814	348.00034	316.52292	115.65685	345.52045	165.05357	1100.02393	-654.55774	18.57840	562.53998	-415.27014	178.40123	556.88367	-427.57635	95.01817	582.83942	527.76038	250.30827	571.23773	515.70032	
5637	56.360	-83.52626	115.10444	-263.52054	308.91055	10.55222	-285.23834	-36.56708	18.46919	348.03091	318.64731	125.58676	342.08524	164.68251	1100.56055	-655.50024	18.75336	562.44000	-415.50864	178.09613	556.91571	-427.94635	95.30537	582.34344	527.08514	249.60251	570.98151	515.05035	
5638	56.370	-84.07498	124.41731	-265.34714	308.39362	10.64928	-285.28592	-36.91286	18.35077	347.98770	320.39523	134.90070	338.60513	164.68071	1100.79602	-656.15222	18.45502	562.26013	-415.88309	178.22711	557.20795	-429.30655	95.54360	582.18878	526.46118	250.06157	570.90369	514.28436	
5639	56.380	-84.69464	132.70943	-266.53375	307.80829	10.72752	-285.39536	-37.15535	18.12666	348.03146	323.11768	143.74850	335.85336	164.61945	1101.22998	-656.59918	17.88920	562.34991	-416.22513	177.83095	557.13055	-429.70734	95.89633	581.96027	526.01831	251.04700	570.84949	513.81610	
